<?xml version="1.0" standalone="no"?>
<!DOCTYPE svg PUBLIC "-//W3C//DTD SVG 20010904//EN"
 "http://www.w3.org/TR/2001/REC-SVG-20010904/DTD/svg10.dtd">
<svg version="1.0" xmlns="http://www.w3.org/2000/svg"
 width="16.000000pt" height="16.000000pt" viewBox="0 0 16.000000 16.000000"
 preserveAspectRatio="xMidYMid meet">
<metadata>
Created by potrace 1.11, written by Peter Selinger 2001-2013
</metadata>
<g transform="translate(0.000000,16.000000) scale(0.007960,-0.007960)"
fill="#000000" stroke="none">
<path d="M908 2005 c-2 -2 -32 -5 -68 -8 -232 -20 -356 -89 -390 -216 -19 -71
11 -220 55 -277 15 -18 15 -18 9 8 -10 46 15 125 51 163 73 74 214 117 365
111 138 -6 233 -48 330 -146 63 -63 110 -133 98 -145 -5 -6 -197 -47 -273 -59
-22 -4 -69 -11 -105 -17 -355 -58 -614 -39 -661 47 -12 24 -14 24 -26 8 -8
-10 -18 -35 -23 -55 -14 -52 1 -86 46 -105 56 -23 235 -23 379 1 98 16 109 18
191 35 28 6 63 13 78 16 26 4 347 86 392 99 17 5 22 0 34 -37 45 -151 0 -341
-112 -463 -189 -207 -496 -218 -701 -25 l-61 57 -95 -40 c-53 -21 -100 -43
-104 -47 -11 -10 86 -203 170 -339 102 -165 263 -384 395 -535 l34 -39 70 84
c306 369 504 699 593 989 35 113 42 285 16 380 -20 76 -20 76 28 94 38 15 23
15 -30 0 -18 -5 -27 5 -64 78 -85 162 -267 310 -435 353 -56 14 -181 34 -186
30z m649 -481 c-3 -3 -12 -4 -19 -1 -8 3 -5 6 6 6 11 1 17 -2 13 -5z m-97 -25
c-66 -19 -98 -24 -87 -13 8 9 106 32 132 32 11 0 -9 -8 -45 -19z"/>
<path d="M279 1214 c-27 -70 -20 -108 23 -130 57 -29 215 -18 388 28 41 11 82
21 90 23 8 2 38 11 65 20 28 9 60 18 71 20 25 6 93 34 82 35 -4 0 -42 -9 -85
-20 -234 -61 -458 -75 -538 -34 -22 11 -50 36 -62 54 l-23 32 -11 -28z"/>
</g>
</svg>
